<?xml version="1.0" standalone="no"?>
<!DOCTYPE svg PUBLIC "-//W3C//DTD SVG 20010904//EN"
 "http://www.w3.org/TR/2001/REC-SVG-20010904/DTD/svg10.dtd">
<svg version="1.0" xmlns="http://www.w3.org/2000/svg"
 width="50.000000pt" height="50.000000pt" viewBox="0 0 50.000000 50.000000"
 preserveAspectRatio="xMidYMid meet">
<metadata>
Created by potrace 1.16, written by Peter Selinger 2001-2019
</metadata>
<g transform="translate(0.000000,50.000000) scale(0.100000,-0.100000)"
fill="#000000" stroke="none">
<path d="M154 388 c-32 -23 -74 -86 -74 -112 0 -8 -9 -20 -19 -26 -56 -29 -71
-101 -29 -140 20 -18 35 -20 181 -20 139 0 158 2 147 15 -6 8 -20 17 -31 20
-26 8 -24 23 4 28 12 3 -30 3 -95 0 -117 -6 -168 -1 -168 17 0 5 17 10 38 12
37 3 37 3 44 57 12 98 67 117 134 45 18 -19 39 -34 47 -34 8 0 26 -9 41 -21
14 -11 26 -16 26 -10 0 6 9 11 20 11 11 0 20 4 20 8 0 15 -36 42 -56 42 -11 0
-31 14 -43 31 -13 17 -38 37 -57 45 -22 9 -34 21 -34 34 0 28 -56 27 -96 -2z"/>
</g>
</svg>
